<svg xmlns="http://www.w3.org/2000/svg" viewBox="0 0 180 180" width="180" height="180"
    preserveAspectRatio="xMidYMid meet"
    style="width: 100%; height: 100%; transform: translate3d(0px, 0px, 0px); content-visibility: visible;">
    <defs>
        <clipPath id="__lottie_element_18">
            <rect width="180" height="180" x="0" y="0"></rect>
        </clipPath>
    </defs>
    <g clip-path="url(#__lottie_element_18)">
        <g transform="matrix(1,0,0,1,-0.25,-0.25)" opacity="1" style="display: block;">
            <g opacity="1" transform="matrix(1,0,0,1,90.25,90.25)">
                <path fill="rgb(55,166,202)" fill-opacity="1"
                    d=" M0,-90 C49.70600128173828,-90 90,-49.70600128173828 90,0 C90,49.70600128173828 49.70600128173828,90 0,90 C-49.70600128173828,90 -90,49.70600128173828 -90,0 C-90,-49.70600128173828 -49.70600128173828,-90 0,-90z"></path>
            </g>
        </g>
        <g transform="matrix(1,0,0,1,49.66299819946289,44.7239990234375)" opacity="1"
            style="display: block;">
            <g opacity="1" transform="matrix(1,0,0,1,39.36800003051758,45.2760009765625)">
                <path fill="rgb(255,255,255)" fill-opacity="1"
                    d=" M0.0010000000474974513,45.0260009765625 C-17.198999404907227,37.24300003051758 -30.753000259399414,15.361000061035156 -34.025001525878906,2.437999963760376 C-37.29600143432617,-10.486000061035156 -39.11800003051758,-20.545000076293945 -38.58100128173828,-32.150001525878906 C-29.384000778198242,-31.16200065612793 -21.801000595092773,-31.740999221801758 -15.440999984741211,-33.9119987487793 C-9.211000442504883,-36.03900146484375 -4.14300012588501,-39.68299865722656 0,-45.0260009765625 C4.14300012588501,-39.68299865722656 9.211000442504883,-36.03900146484375 15.440999984741211,-33.9119987487793 C21.801000595092773,-31.740999221801758 29.384000778198242,-31.16200065612793 38.58100128173828,-32.150001525878906 C39.11899948120117,-20.545000076293945 37.29499816894531,-10.486000061035156 34.02299880981445,2.437999963760376 C30.750999450683594,15.361000061035156 17.200000762939453,37.24300003051758 0,45.0260009765625 C0,45.0260009765625 0.0010000000474974513,45.0260009765625 0.0010000000474974513,45.0260009765625z"></path>
            </g>
        </g>
        <g
            transform="matrix(0.9959316849708557,0.0901116207242012,-0.0901116207242012,0.9959316849708557,77.3958969116211,62.501792907714844)"
            opacity="1" style="display: block;">
            <g opacity="1" transform="matrix(1,0,0,1,39.2869987487793,42.737998962402344)">
                <path fill="rgb(255,255,255)" fill-opacity="1"
                    d=" M-0.003000000026077032,17.4950008392334 C-9.506999969482422,17.493000030517578 -17.23900032043457,9.645000457763672 -17.23900032043457,0.0010000000474974513 C-17.23900032043457,-9.647000312805176 -9.506999969482422,-17.4950008392334 -0.003000000026077032,-17.4950008392334 C9.505000114440918,-17.4950008392334 17.23900032043457,-9.647000312805176 17.23900032043457,0.0010000000474974513 C17.23900032043457,9.647000312805176 9.505000114440918,17.4950008392334 0,17.4950008392334 C0,17.4950008392334 -0.003000000026077032,17.4950008392334 -0.003000000026077032,17.4950008392334z"></path>
            </g>
            <g opacity="1" transform="matrix(1,0,0,1,39.2869987487793,42.737998962402344)">
                <path fill="rgb(55,166,202)" fill-opacity="1"
                    d=" M0.0010000000474974513,-15.994999885559082 C8.680000305175781,-15.994999885559082 15.73799991607666,-8.819000244140625 15.73799991607666,0.0010000000474974513 C15.73799991607666,8.821000099182129 8.678999900817871,15.994999885559082 0.0010000000474974513,15.994999885559082 C0.0010000000474974513,15.994999885559082 -0.0010000000474974513,15.994999885559082 -0.0010000000474974513,15.994999885559082 C-0.0010000000474974513,15.994999885559082 -0.003000000026077032,15.994999885559082 -0.003000000026077032,15.994999885559082 C-8.680000305175781,15.993000030517578 -15.73799991607666,8.819000244140625 -15.73799991607666,0.0010000000474974513 C-15.73799991607666,-8.817999839782715 -8.680999755859375,-15.994999885559082 -0.003000000026077032,-15.994999885559082 C-0.003000000026077032,-15.994999885559082 -0.0010000000474974513,-15.994999885559082 -0.0010000000474974513,-15.994999885559082 C-0.0010000000474974513,-15.994999885559082 0.0010000000474974513,-15.994999885559082 0.0010000000474974513,-15.994999885559082z M0.0010000000474974513,-18.9950008392334 C0.0010000000474974513,-18.9950008392334 -0.0010000000474974513,-18.9950008392334 -0.0010000000474974513,-18.9950008392334 C-10.333999633789062,-18.9950008392334 -18.738000869750977,-10.473999977111816 -18.738000869750977,0.0010000000474974513 C-18.738000869750977,10.472000122070312 -10.333999633789062,18.993000030517578 -0.003000000026077032,18.9950008392334 C10.331999778747559,18.9950008392334 18.738000869750977,10.475000381469727 18.738000869750977,0.0010000000474974513 C18.738000869750977,-10.473999977111816 10.333000183105469,-18.9950008392334 0.0010000000474974513,-18.9950008392334z"></path>
            </g>
            <g opacity="1" transform="matrix(1,0,0,1,39.2859992980957,42.737998962402344)">
                <path fill="rgb(255,255,255)" fill-opacity="1"
                    d=" M0,4.493000030517578 C-2.4519999027252197,4.493000030517578 -4.446000099182129,2.4779999256134033 -4.446000099182129,0.0010000000474974513 C-4.446000099182129,-2.4779999256134033 -2.4519999027252197,-4.493000030517578 0,-4.493000030517578 C2.4519999027252197,-4.493000030517578 4.446000099182129,-2.4779999256134033 4.446000099182129,0.0010000000474974513 C4.446000099182129,2.4779999256134033 2.4519999027252197,4.493000030517578 0,4.493000030517578z"></path>
            </g>
            <g opacity="1" transform="matrix(1,0,0,1,39.2859992980957,42.737998962402344)">
                <path fill="rgb(55,166,202)" fill-opacity="1"
                    d=" M0,-2.993000030517578 C1.6239999532699585,-2.993000030517578 2.946000099182129,-1.6510000228881836 2.946000099182129,-0.0010000000474974513 C2.946000099182129,1.649999976158142 1.625,2.993000030517578 0,2.993000030517578 C-1.625,2.993000030517578 -2.946000099182129,1.649999976158142 -2.946000099182129,-0.0010000000474974513 C-2.946000099182129,-1.6510000228881836 -1.6239999532699585,-2.993000030517578 0,-2.993000030517578z M0,-5.993000030517578 C-3.2790000438690186,-5.993000030517578 -5.946000099182129,-3.305000066757202 -5.946000099182129,-0.0010000000474974513 C-5.946000099182129,3.303999900817871 -3.2790000438690186,5.993000030517578 0,5.993000030517578 C3.2790000438690186,5.993000030517578 5.946000099182129,3.303999900817871 5.946000099182129,-0.0010000000474974513 C5.946000099182129,-3.305000066757202 3.2790000438690186,-5.993000030517578 0,-5.993000030517578z"></path>
            </g>
            <g opacity="1" transform="matrix(1,0,0,1,39.415000915527344,7.611000061035156)">
                <path fill="rgb(255,255,255)" fill-opacity="1"
                    d=" M0,5.861000061035156 C-3.193000078201294,5.861000061035156 -5.790999889373779,3.2320001125335693 -5.790999889373779,0 C-5.790999889373779,-3.2309999465942383 -3.193000078201294,-5.861000061035156 0,-5.861000061035156 C3.193000078201294,-5.861000061035156 5.790999889373779,-3.2309999465942383 5.790999889373779,0 C5.790999889373779,3.2320001125335693 3.193000078201294,5.861000061035156 0,5.861000061035156z"></path>
            </g>
            <g opacity="1" transform="matrix(1,0,0,1,39.415000915527344,7.611000061035156)">
                <path fill="rgb(55,166,202)" fill-opacity="1"
                    d=" M0,-4.361000061035156 C2.365999937057495,-4.361000061035156 4.290999889373779,-2.4049999713897705 4.290999889373779,0 C4.290999889373779,2.4049999713897705 2.365999937057495,4.361000061035156 0,4.361000061035156 C-2.365999937057495,4.361000061035156 -4.290999889373779,2.4049999713897705 -4.290999889373779,0 C-4.290999889373779,-2.4049999713897705 -2.365999937057495,-4.361000061035156 0,-4.361000061035156z M0,-7.361000061035156 C-4.019999980926514,-7.361000061035156 -7.290999889373779,-4.059000015258789 -7.290999889373779,0 C-7.290999889373779,4.059000015258789 -4.019999980926514,7.361000061035156 0,7.361000061035156 C4.020999908447266,7.361000061035156 7.290999889373779,4.059000015258789 7.290999889373779,0 C7.290999889373779,-4.059000015258789 4.020999908447266,-7.361000061035156 0,-7.361000061035156z"></path>
            </g>
            <g opacity="1" transform="matrix(1,0,0,1,22.136999130249023,19.88599967956543)">
                <path fill="rgb(255,255,255)" fill-opacity="1"
                    d=" M0.006000000052154064,6.322999954223633 C-2.368000030517578,6.322999954223633 -4.572999954223633,4.929999828338623 -5.61299991607666,2.7750000953674316 C-7.11899995803833,-0.34700000286102295 -5.8379998207092285,-4.13700008392334 -2.757999897003174,-5.672999858856201 C-1.8919999599456787,-6.104000091552734 -0.9679999947547913,-6.322999954223633 -0.00800000037997961,-6.322999954223633 C2.368000030517578,-6.322999954223633 4.572999954223633,-4.928999900817871 5.611000061035156,-2.7730000019073486 C7.11899995803833,0.3479999899864197 5.839000225067139,4.138999938964844 2.756999969482422,5.673999786376953 C1.8919999599456787,6.104000091552734 0.9660000205039978,6.322000026702881 0.006000000052154064,6.322999954223633z"></path>
            </g>
            <g opacity="1" transform="matrix(1,0,0,1,22.136999130249023,19.88599967956543)">
                <path fill="rgb(55,166,202)" fill-opacity="1"
                    d=" M-0.00800000037997961,-4.822000026702881 C1.746999979019165,-4.822000026702881 3.437999963760376,-3.828000068664551 4.260000228881836,-2.121999979019165 C5.4120001792907715,0.26600000262260437 4.438000202178955,3.1600000858306885 2.0889999866485596,4.330999851226807 C1.4179999828338623,4.664000034332275 0.7080000042915344,4.822000026702881 0.007000000216066837,4.822000026702881 C-1.7480000257492065,4.822000026702881 -3.438999891281128,3.8299999237060547 -4.26200008392334,2.122999906539917 C-5.414000034332275,-0.26499998569488525 -4.438000202178955,-3.1589999198913574 -2.0889999866485596,-4.329999923706055 C-1.4190000295639038,-4.663000106811523 -0.7089999914169312,-4.822000026702881 -0.00800000037997961,-4.822000026702881z M-0.007000000216066837,-7.822000026702881 C-1.2009999752044678,-7.822000026702881 -2.3510000705718994,-7.550000190734863 -3.4260001182556152,-7.014999866485596 C-7.23799991607666,-5.116000175476074 -8.824999809265137,-0.4320000112056732 -6.964000225067139,3.427000045776367 C-5.677000045776367,6.0970001220703125 -2.940000057220459,7.822000026702881 0.007000000216066837,7.822000026702881 C1.184000015258789,7.822000026702881 2.365999937057495,7.544000148773193 3.4260001182556152,7.015999794006348 C7.23799991607666,5.117000102996826 8.824000358581543,0.43299999833106995 6.961999893188477,-3.4260001182556152 C5.676000118255615,-6.0960001945495605 2.940000057220459,-7.822000026702881 -0.007000000216066837,-7.822000026702881z"></path>
            </g>
            <g opacity="1" transform="matrix(1,0,0,1,6.196000099182129,42.737998962402344)">
                <path fill="rgb(255,255,255)" fill-opacity="1"
                    d=" M0,4.493000030517578 C-2.4519999027252197,4.493000030517578 -4.446000099182129,2.4769999980926514 -4.446000099182129,-0.0010000000474974513 C-4.446000099182129,-2.4790000915527344 -2.4519999027252197,-4.493000030517578 0,-4.493000030517578 C2.4519999027252197,-4.493000030517578 4.446000099182129,-2.4790000915527344 4.446000099182129,-0.0010000000474974513 C4.446000099182129,2.4769999980926514 2.4519999027252197,4.493000030517578 0,4.493000030517578z"></path>
            </g>
            <g opacity="1" transform="matrix(1,0,0,1,6.196000099182129,42.737998962402344)">
                <path fill="rgb(55,166,202)" fill-opacity="1"
                    d=" M0,-2.993000030517578 C1.625,-2.993000030517578 2.946000099182129,-1.6510000228881836 2.946000099182129,-0.0010000000474974513 C2.946000099182129,1.649999976158142 1.625,2.993000030517578 0,2.993000030517578 C-1.625,2.993000030517578 -2.946000099182129,1.649999976158142 -2.946000099182129,-0.0010000000474974513 C-2.946000099182129,-1.6510000228881836 -1.625,-2.993000030517578 0,-2.993000030517578z M0,-5.993000030517578 C-3.2790000438690186,-5.993000030517578 -5.946000099182129,-3.305000066757202 -5.946000099182129,-0.0010000000474974513 C-5.946000099182129,3.303999900817871 -3.2790000438690186,5.993000030517578 0,5.993000030517578 C3.2790000438690186,5.993000030517578 5.946000099182129,3.303999900817871 5.946000099182129,-0.0010000000474974513 C5.946000099182129,-3.305000066757202 3.2790000438690186,-5.993000030517578 0,-5.993000030517578z"></path>
            </g>
            <g opacity="1" transform="matrix(1,0,0,1,15.647000312805176,55.132999420166016)">
                <path fill="rgb(255,255,255)" fill-opacity="1"
                    d=" M0.24300000071525574,4.494999885559082 C-1.534999966621399,4.494999885559082 -3.138000011444092,3.430000066757202 -3.8420000076293945,1.781000018119812 C-4.809999942779541,-0.48399999737739563 -3.7769999504089355,-3.13100004196167 -1.5390000343322754,-4.118000030517578 C-0.972000002861023,-4.368000030517578 -0.37400001287460327,-4.494999885559082 0.23800000548362732,-4.494999885559082 C0.8050000071525574,-4.494999885559082 1.3600000143051147,-4.38700008392334 1.8860000371932983,-4.172999858856201 C2.9809999465942383,-3.7339999675750732 3.8480000495910645,-2.884000062942505 4.320000171661377,-1.7799999713897705 C4.789999961853027,-0.6869999766349792 4.809999942779541,0.5299999713897705 4.377999782562256,1.6430000066757202 C3.946000099182129,2.759999990463257 3.1070001125335693,3.640000104904175 2.0169999599456787,4.11899995803833 C1.4529999494552612,4.368000030517578 0.8560000061988831,4.494999885559082 0.24300000071525574,4.494999885559082z"></path>
            </g>
            <g opacity="1" transform="matrix(1,0,0,1,15.567999839782715,55.132999420166016)">
                <path fill="rgb(55,166,202)" fill-opacity="1"
                    d=" M0.3179999887943268,-2.994999885559082 C0.6840000152587891,-2.994999885559082 1.0499999523162842,-2.924999952316284 1.399999976158142,-2.7839999198913574 C2.131999969482422,-2.490000009536743 2.7070000171661377,-1.9240000247955322 3.0209999084472656,-1.190999984741211 C3.0209999084472656,-1.190999984741211 3.0230000019073486,-1.190999984741211 3.0230000019073486,-1.190999984741211 C3.3350000381469727,-0.4580000042915344 3.3480000495910645,0.3569999933242798 3.059000015258789,1.100000023841858 C2.7699999809265137,1.843999981880188 2.2149999141693115,2.428999900817871 1.4930000305175781,2.746999979019165 C1.1119999885559082,2.9149999618530273 0.7139999866485596,2.994999885559082 0.3240000009536743,2.994999885559082 C-0.8149999976158142,2.994999885559082 -1.9010000228881836,2.319999933242798 -2.382999897003174,1.1920000314712524 C-3.0299999713897705,-0.32199999690055847 -2.3440001010894775,-2.0889999866485596 -0.8539999723434448,-2.746000051498413 C-0.4779999852180481,-2.9119999408721924 -0.07999999821186066,-2.994999885559082 0.3179999887943268,-2.994999885559082z M0.3179999887943268,-5.994999885559082 C-0.5049999952316284,-5.994999885559082 -1.3079999685287476,-5.824999809265137 -2.065999984741211,-5.491000175476074 C-5.051000118255615,-4.172999858856201 -6.431000232696533,-0.6470000147819519 -5.14300012588501,2.369999885559082 C-4.202000141143799,4.572000026702881 -2.055999994277954,5.994999885559082 0.3240000009536743,5.994999885559082 C1.1460000276565552,5.994999885559082 1.9459999799728394,5.826000213623047 2.7019999027252197,5.492000102996826 C4.1570000648498535,4.85099983215332 5.2779998779296875,3.6760001182556152 5.85699987411499,2.186000108718872 C6.431000232696533,0.7070000171661377 6.4029998779296875,-0.9110000133514404 5.781000137329102,-2.368000030517578 C5.14900016784668,-3.8420000076293945 3.990999937057495,-4.97599983215332 2.5160000324249268,-5.567999839782715 C1.819000005722046,-5.849999904632568 1.0770000219345093,-5.994999885559082 0.3179999887943268,-5.994999885559082z"></path>
            </g>
            <g opacity="1" transform="matrix(1,0,0,1,58.94300079345703,49.99399948120117)">
                <path fill="rgb(255,255,255)" fill-opacity="1"
                    d=" M-1.6740000247955322,-2.240000009536743 C-1.6740000247955322,-2.240000009536743 2.6649999618530273,-0.6740000247955322 2.6649999618530273,-0.6740000247955322 C2.6649999618530273,-0.6740000247955322 2.0460000038146973,2.240999937057495 2.0460000038146973,2.240999937057495 C2.0460000038146973,2.240999937057495 -2.6649999618530273,0.5410000085830688 -2.6649999618530273,0.5410000085830688 C-2.6649999618530273,0.5410000085830688 -1.6740000247955322,-2.240999937057495 -1.6740000247955322,-2.240999937057495 C-1.6740000247955322,-2.240999937057495 -1.6740000247955322,-2.240000009536743 -1.6740000247955322,-2.240000009536743z"></path>
            </g>
            <g opacity="1" transform="matrix(1,0,0,1,49.11199951171875,60.8129997253418)">
                <path fill="rgb(255,255,255)" fill-opacity="1"
                    d=" M2.13700008392334,0.753000020980835 C2.13700008392334,0.753000020980835 -0.37599998712539673,2.244999885559082 -0.37599998712539673,2.244999885559082 C-0.37599998712539673,2.244999885559082 -2.13700008392334,-0.8140000104904175 -2.13700008392334,-0.8140000104904175 C-2.13700008392334,-0.8140000104904175 0.41200000047683716,-2.244999885559082 0.41200000047683716,-2.244999885559082 C0.41200000047683716,-2.244999885559082 2.13700008392334,0.7509999871253967 2.13700008392334,0.7509999871253967 C2.13700008392334,0.7509999871253967 2.13700008392334,0.753000020980835 2.13700008392334,0.753000020980835z"></path>
            </g>
            <g opacity="1" transform="matrix(1,0,0,1,39.28499984741211,66.11199951171875)">
                <path fill="rgb(255,255,255)" fill-opacity="1"
                    d=" M-1.4559999704360962,-4.486000061035156 C-1.4559999704360962,-4.486000061035156 1.4559999704360962,-4.486000061035156 1.4559999704360962,-4.486000061035156 C1.4559999704360962,-4.486000061035156 1.4559999704360962,4.486000061035156 1.4559999704360962,4.486000061035156 C1.4559999704360962,4.486000061035156 -1.4559999704360962,4.486000061035156 -1.4559999704360962,4.486000061035156 C-1.4559999704360962,4.486000061035156 -1.4559999704360962,-4.486000061035156 -1.4559999704360962,-4.486000061035156z"></path>
            </g>
            <g opacity="1" transform="matrix(1,0,0,1,57.38999938964844,31.92300033569336)">
                <path fill="rgb(255,255,255)" fill-opacity="1"
                    d=" M2.7709999084472656,-0.09000000357627869 C2.7709999084472656,-0.09000000357627869 -1.2999999523162842,2.5959999561309814 -1.2999999523162842,2.5959999561309814 C-1.2999999523162842,2.5959999561309814 -2.7709999084472656,0.03999999910593033 -2.7709999084472656,0.03999999910593033 C-2.7709999084472656,0.03999999910593033 1.2239999771118164,-2.5959999561309814 1.2239999771118164,-2.5959999561309814 C1.2239999771118164,-2.5959999561309814 2.7709999084472656,-0.09000000357627869 2.7709999084472656,-0.09000000357627869z"></path>
            </g>
            <g opacity="1" transform="matrix(1,0,0,1,68.41899871826172,52.59299850463867)">
                <path fill="rgb(255,255,255)" fill-opacity="1"
                    d=" M3.4690001010894775,1.9040000438690186 C2.2679998874664307,3.9749999046325684 -0.367000013589859,4.668000221252441 -2.4059998989105225,3.447999954223633 C-3.3929998874664307,2.8559999465942383 -4.09499979019165,1.909999966621399 -4.382999897003174,0.7829999923706055 C-4.670000076293945,-0.3449999988079071 -4.506999969482422,-1.5190000534057617 -3.9240000247955322,-2.5230000019073486 C-3.125,-3.9019999504089355 -1.6920000314712524,-4.668000221252441 -0.22100000083446503,-4.668000221252441 C0.5180000066757202,-4.668000221252441 1.2669999599456787,-4.473999977111816 1.9490000009536743,-4.065000057220459 C3.986999988555908,-2.8450000286102295 4.669000148773193,-0.16699999570846558 3.4679999351501465,1.9049999713897705 C3.4679999351501465,1.9049999713897705 3.4690001010894775,1.9040000438690186 3.4690001010894775,1.9040000438690186z"></path>
            </g>
            <g opacity="1" transform="matrix(1,0,0,1,52.856998443603516,67.33999633789062)">
                <path fill="rgb(255,255,255)" fill-opacity="1"
                    d=" M2.5420000553131104,-1.5640000104904175 C3.36299991607666,-0.13899999856948853 2.890000104904175,1.6990000009536743 1.4880000352859497,2.5329999923706055 C0.8080000281333923,2.936000108718872 0.014000000432133675,3.046999931335449 -0.746999979019165,2.8440001010894775 C-1.5089999437332153,2.6419999599456787 -2.1449999809265137,2.1500000953674316 -2.5420000553131104,1.4600000381469727 C-3.36299991607666,0.03500000014901161 -2.890000104904175,-1.8029999732971191 -1.4880000352859497,-2.63700008392334 C-1.0210000276565552,-2.9140000343322754 -0.5080000162124634,-3.0460000038146973 -0.003000000026077032,-3.0460000038146973 C1.0099999904632568,-3.0460000038146973 1.996999979019165,-2.5160000324249268 2.5439999103546143,-1.565999984741211 C2.5439999103546143,-1.565999984741211 2.5420000553131104,-1.5640000104904175 2.5420000553131104,-1.5640000104904175z"></path>
            </g>
            <g opacity="1" transform="matrix(1,0,0,1,66.8479995727539,26.240999221801758)">
                <path fill="rgb(255,255,255)" fill-opacity="1"
                    d=" M5.820000171661377,1.1319999694824219 C5.408999919891357,2.7119998931884766 4.416999816894531,4.035999774932861 3.0260000228881836,4.85699987411499 C0.15600000321865082,6.554999828338623 -3.5369999408721924,5.560999870300293 -5.205999851226807,2.6449999809265137 C-6.014999866485596,1.2319999933242798 -6.232999801635742,-0.41600000858306885 -5.822000026702881,-1.996999979019165 C-5.410999774932861,-3.5769999027252197 -4.419000148773193,-4.901000022888184 -3.0280001163482666,-5.7220001220703125 C-2.0959999561309814,-6.2729997634887695 -1.059000015258789,-6.554999828338623 -0.009999999776482582,-6.554999828338623 C0.5070000290870667,-6.554999828338623 1.0269999504089355,-6.486999988555908 1.5399999618530273,-6.348999977111816 C3.0950000286102295,-5.931000232696533 4.396999835968018,-4.921999931335449 5.204999923706055,-3.509999990463257 C6.013000011444092,-2.0969998836517334 6.232999801635742,-0.4490000009536743 5.822000026702881,1.1319999694824219 C5.822000026702881,1.1319999694824219 5.820000171661377,1.1319999694824219 5.820000171661377,1.1319999694824219z"></path>
            </g>
            <g opacity="1" transform="matrix(1,0,0,1,39.2869987487793,76.36399841308594)">
                <path fill="rgb(255,255,255)" fill-opacity="1"
                    d=" M2.946000099182129,0 C2.946000099182129,1.6510000228881836 1.625,2.993000030517578 0,2.993000030517578 C-1.625,2.993000030517578 -2.946000099182129,1.6510000228881836 -2.946000099182129,0 C-2.946000099182129,-1.6510000228881836 -1.625,-2.993000030517578 0,-2.993000030517578 C1.625,-2.993000030517578 2.946000099182129,-1.6510000228881836 2.946000099182129,0z"></path>
            </g>
            <g opacity="1" transform="matrix(1,0,0,1,39.2859992980957,19.357999801635742)">
                <path fill="rgb(55,166,202)" fill-opacity="1"
                    d=" M1.4559999704360962,5.659999847412109 C1.4559999704360962,5.659999847412109 -1.4559999704360962,5.659999847412109 -1.4559999704360962,5.659999847412109 C-1.4559999704360962,5.659999847412109 -1.4559999704360962,-5.659999847412109 -1.4559999704360962,-5.659999847412109 C-1.4559999704360962,-5.659999847412109 1.4559999704360962,-5.659999847412109 1.4559999704360962,-5.659999847412109 C1.4559999704360962,-5.659999847412109 1.4559999704360962,5.659999847412109 1.4559999704360962,5.659999847412109z"></path>
            </g>
            <g opacity="1" transform="matrix(1,0,0,1,15.887999534606934,42.737998962402344)">
                <path fill="rgb(55,166,202)" fill-opacity="1"
                    d=" M5.659999847412109,1.4559999704360962 C5.659999847412109,1.4559999704360962 -5.659999847412109,1.4559999704360962 -5.659999847412109,1.4559999704360962 C-5.659999847412109,1.4559999704360962 -5.659999847412109,-1.4559999704360962 -5.659999847412109,-1.4559999704360962 C-5.659999847412109,-1.4559999704360962 5.659999847412109,-1.4559999704360962 5.659999847412109,-1.4559999704360962 C5.659999847412109,-1.4559999704360962 5.659999847412109,1.4559999704360962 5.659999847412109,1.4559999704360962z"></path>
            </g>
            <g opacity="1" transform="matrix(1,0,0,1,22.628999710083008,52.13800048828125)">
                <path fill="rgb(55,166,202)" fill-opacity="1"
                    d=" M1.9240000247955322,-2.4130001068115234 C1.9240000247955322,-2.4130001068115234 3.075000047683716,0.26100000739097595 3.075000047683716,0.26100000739097595 C3.075000047683716,0.26100000739097595 -1.9240000247955322,2.4130001068115234 -1.9240000247955322,2.4130001068115234 C-1.9240000247955322,2.4130001068115234 -3.075000047683716,-0.26100000739097595 -3.075000047683716,-0.26100000739097595 C-3.075000047683716,-0.26100000739097595 1.9240000247955322,-2.4130001068115234 1.9240000247955322,-2.4130001068115234z"></path>
            </g>
            <g opacity="1" transform="matrix(1,0,0,1,27.222999572753906,26.989999771118164)">
                <path fill="rgb(55,166,202)" fill-opacity="1"
                    d=" M3.2230000495910645,1.7430000305175781 C3.2230000495910645,1.7430000305175781 0.9350000023841858,3.5429999828338623 0.9350000023841858,3.5429999828338623 C0.9350000023841858,3.5429999828338623 -3.2230000495910645,-1.7430000305175781 -3.2230000495910645,-1.7430000305175781 C-3.2230000495910645,-1.7430000305175781 -0.9350000023841858,-3.5429999828338623 -0.9350000023841858,-3.5429999828338623 C-0.9350000023841858,-3.5429999828338623 3.2230000495910645,1.7430000305175781 3.2230000495910645,1.7430000305175781z"></path>
            </g>
        </g>
        <g transform="matrix(1,0,0,1,29.749000549316406,48.38966369628906)" opacity="1"
            style="display: block;">
            <g opacity="1" transform="matrix(1,0,0,1,24.047000885009766,24.38599967956543)">
                <path fill="rgb(255,255,255)" fill-opacity="1"
                    d=" M-6.021999835968018,22.63599967956543 C-6.85099983215332,22.63599967956543 -7.521999835968018,21.964000701904297 -7.521999835968018,21.13599967956543 C-7.521999835968018,21.13599967956543 -7.521999835968018,7.620999813079834 -7.521999835968018,7.620999813079834 C-7.521999835968018,7.620999813079834 -20.797000885009766,7.620999813079834 -20.797000885009766,7.620999813079834 C-21.625999450683594,7.620999813079834 -22.297000885009766,6.948999881744385 -22.297000885009766,6.120999813079834 C-22.297000885009766,6.120999813079834 -22.297000885009766,-6.120999813079834 -22.297000885009766,-6.120999813079834 C-22.297000885009766,-6.948999881744385 -21.625999450683594,-7.620999813079834 -20.797000885009766,-7.620999813079834 C-20.797000885009766,-7.620999813079834 -7.521999835968018,-7.620999813079834 -7.521999835968018,-7.620999813079834 C-7.521999835968018,-7.620999813079834 -7.521999835968018,-21.13599967956543 -7.521999835968018,-21.13599967956543 C-7.521999835968018,-21.96500015258789 -6.85099983215332,-22.63599967956543 -6.021999835968018,-22.63599967956543 C-6.021999835968018,-22.63599967956543 6.0229997634887695,-22.63599967956543 6.0229997634887695,-22.63599967956543 C6.8520002365112305,-22.63599967956543 7.5229997634887695,-21.96500015258789 7.5229997634887695,-21.13599967956543 C7.5229997634887695,-21.13599967956543 7.5229997634887695,-7.620999813079834 7.5229997634887695,-7.620999813079834 C7.5229997634887695,-7.620999813079834 20.797000885009766,-7.620999813079834 20.797000885009766,-7.620999813079834 C21.625999450683594,-7.620999813079834 22.297000885009766,-6.948999881744385 22.297000885009766,-6.120999813079834 C22.297000885009766,-6.120999813079834 22.297000885009766,6.120999813079834 22.297000885009766,6.120999813079834 C22.297000885009766,6.948999881744385 21.625999450683594,7.620999813079834 20.797000885009766,7.620999813079834 C20.797000885009766,7.620999813079834 7.5229997634887695,7.620999813079834 7.5229997634887695,7.620999813079834 C7.5229997634887695,7.620999813079834 7.5229997634887695,21.13599967956543 7.5229997634887695,21.13599967956543 C7.5229997634887695,21.964000701904297 6.8520002365112305,22.63599967956543 6.0229997634887695,22.63599967956543 C6.0229997634887695,22.63599967956543 -6.021999835968018,22.63599967956543 -6.021999835968018,22.63599967956543z"></path>
            </g>
            <g opacity="1" transform="matrix(1,0,0,1,24.047000885009766,24.38599967956543)">
                <path fill="rgb(55,166,202)" fill-opacity="1"
                    d=" M6.0229997634887695,-21.13599967956543 C6.0229997634887695,-21.13599967956543 6.0229997634887695,-6.120999813079834 6.0229997634887695,-6.120999813079834 C6.0229997634887695,-6.120999813079834 20.79800033569336,-6.120999813079834 20.79800033569336,-6.120999813079834 C20.79800033569336,-6.120999813079834 20.79800033569336,6.120999813079834 20.79800033569336,6.120999813079834 C20.79800033569336,6.120999813079834 6.0229997634887695,6.120999813079834 6.0229997634887695,6.120999813079834 C6.0229997634887695,6.120999813079834 6.0229997634887695,21.13599967956543 6.0229997634887695,21.13599967956543 C6.0229997634887695,21.13599967956543 -6.0229997634887695,21.13599967956543 -6.0229997634887695,21.13599967956543 C-6.0229997634887695,21.13599967956543 -6.0229997634887695,6.120999813079834 -6.0229997634887695,6.120999813079834 C-6.0229997634887695,6.120999813079834 -20.79800033569336,6.120999813079834 -20.79800033569336,6.120999813079834 C-20.79800033569336,6.120999813079834 -20.79800033569336,-6.120999813079834 -20.79800033569336,-6.120999813079834 C-20.79800033569336,-6.120999813079834 -6.0229997634887695,-6.120999813079834 -6.0229997634887695,-6.120999813079834 C-6.0229997634887695,-6.120999813079834 -6.0229997634887695,-21.13599967956543 -6.0229997634887695,-21.13599967956543 C-6.0229997634887695,-21.13599967956543 6.0229997634887695,-21.13599967956543 6.0229997634887695,-21.13599967956543z M6.0229997634887695,-24.13599967956543 C6.0229997634887695,-24.13599967956543 -6.0229997634887695,-24.13599967956543 -6.0229997634887695,-24.13599967956543 C-7.679999828338623,-24.13599967956543 -9.02299976348877,-22.792999267578125 -9.02299976348877,-21.13599967956543 C-9.02299976348877,-21.13599967956543 -9.02299976348877,-9.121000289916992 -9.02299976348877,-9.121000289916992 C-9.02299976348877,-9.121000289916992 -20.79800033569336,-9.121000289916992 -20.79800033569336,-9.121000289916992 C-22.45400047302246,-9.121000289916992 -23.79800033569336,-7.7779998779296875 -23.79800033569336,-6.120999813079834 C-23.79800033569336,-6.120999813079834 -23.79800033569336,6.120999813079834 -23.79800033569336,6.120999813079834 C-23.79800033569336,7.7769999504089355 -22.45400047302246,9.121000289916992 -20.79800033569336,9.121000289916992 C-20.79800033569336,9.121000289916992 -9.02299976348877,9.121000289916992 -9.02299976348877,9.121000289916992 C-9.02299976348877,9.121000289916992 -9.02299976348877,21.13599967956543 -9.02299976348877,21.13599967956543 C-9.02299976348877,22.792999267578125 -7.679999828338623,24.13599967956543 -6.0229997634887695,24.13599967956543 C-6.0229997634887695,24.13599967956543 6.0229997634887695,24.13599967956543 6.0229997634887695,24.13599967956543 C7.679999828338623,24.13599967956543 9.02299976348877,22.792999267578125 9.02299976348877,21.13599967956543 C9.02299976348877,21.13599967956543 9.02299976348877,9.121000289916992 9.02299976348877,9.121000289916992 C9.02299976348877,9.121000289916992 20.79800033569336,9.121000289916992 20.79800033569336,9.121000289916992 C22.454999923706055,9.121000289916992 23.79800033569336,7.7769999504089355 23.79800033569336,6.120999813079834 C23.79800033569336,6.120999813079834 23.79800033569336,-6.120999813079834 23.79800033569336,-6.120999813079834 C23.79800033569336,-7.7779998779296875 22.454999923706055,-9.121000289916992 20.79800033569336,-9.121000289916992 C20.79800033569336,-9.121000289916992 9.02299976348877,-9.121000289916992 9.02299976348877,-9.121000289916992 C9.02299976348877,-9.121000289916992 9.02299976348877,-21.13599967956543 9.02299976348877,-21.13599967956543 C9.02299976348877,-22.792999267578125 7.679999828338623,-24.13599967956543 6.0229997634887695,-24.13599967956543z"></path>
            </g>
        </g>
        <g transform="matrix(1,0,0,1,89.75,91)" opacity="1" style="display: none;">
            <g opacity="1" transform="matrix(1,0,0,1,0,0)">
                <path stroke-linecap="round" stroke-linejoin="round" fill-opacity="0"
                    stroke="rgb(255,255,255)" stroke-opacity="1" stroke-width="4" d="M0 0"></path>
            </g>
        </g>
        <g transform="matrix(1,0,0,1,89.75,91)" opacity="1" style="display: none;">
            <g opacity="1" transform="matrix(1,0,0,1,0,0)">
                <path stroke-linecap="round" stroke-linejoin="round" fill-opacity="0"
                    stroke="rgb(255,255,255)" stroke-opacity="1" stroke-width="4" d="M0 0"></path>
            </g>
        </g>
        <g
            transform="matrix(0.8660253882408142,0.5,-0.5,0.8660253882408142,95.35816955566406,100.71363067626953)"
            opacity="1" style="display: none;">
            <g opacity="1" transform="matrix(1,0,0,1,0,0)">
                <path stroke-linecap="round" stroke-linejoin="round" fill-opacity="0"
                    stroke="rgb(255,255,255)" stroke-opacity="1" stroke-width="4" d="M0 0"></path>
            </g>
        </g>
        <g
            transform="matrix(0.8660253882408142,0.5,-0.5,0.8660253882408142,95.35816955566406,100.71363067626953)"
            opacity="1" style="display: none;">
            <g opacity="1" transform="matrix(1,0,0,1,0,0)">
                <path stroke-linecap="round" stroke-linejoin="round" fill-opacity="0"
                    stroke="rgb(255,255,255)" stroke-opacity="1" stroke-width="4" d="M0 0"></path>
            </g>
        </g>
        <g
            transform="matrix(0.5,0.8660253882408142,-0.8660253882408142,0.5,95.28636932373047,112.35816955566406)"
            opacity="1" style="display: none;">
            <g opacity="1" transform="matrix(1,0,0,1,0,0)">
                <path stroke-linecap="round" stroke-linejoin="round" fill-opacity="0"
                    stroke="rgb(255,255,255)" stroke-opacity="1" stroke-width="4" d="M0 0"></path>
            </g>
        </g>
        <g
            transform="matrix(0.5,0.8660253882408142,-0.8660253882408142,0.5,95.28636932373047,112.35816955566406)"
            opacity="1" style="display: none;">
            <g opacity="1" transform="matrix(1,0,0,1,0,0)">
                <path stroke-linecap="round" stroke-linejoin="round" fill-opacity="0"
                    stroke="rgb(255,255,255)" stroke-opacity="1" stroke-width="4" d="M0 0"></path>
            </g>
        </g>
    </g>
</svg>