<?xml version="1.0" encoding="UTF-8"?><svg xmlns="http://www.w3.org/2000/svg" viewBox="0 0 100 100"><g id="Layer_2"><circle cx="50" cy="50" r="50" style="fill:#5a7800;"/></g><g id="Layer_1"><path d="M76.95047,47.71889l-3.95989,5.65385c.94048.74797,3.07442,1.52347,2.79943,2.72793-.13199.57748-1.17697.88547-1.64445,1.10544l-10.72468,5.34586c.79748.58298,1.44646,1.34747,2.18342,2.00742l1.78194,1.55646c.52249.44549,1.72145,1.14948,1.52897,1.99094l-.01101.04951c-.26398,1.18795-2.3814.64898-3.23391.56647l-14.71198-1.15154.30744,9.98435h-2.63235l.30324-9.97446-16.74936,1.33417c-.90745.033-1.53995-.92397-.88547-1.68295.385-.4565.95149-.80849,1.39698-1.20997l3.83337-3.46489c-.15948-.15401-.495-.26949-.69849-.37398l-10.74667-5.35687c-1.36395-.74797-1.09997-1.35294.12649-2.18892.58298-.40148,1.20447-.78647,1.75445-1.22095l-2.7994-3.9764c-.48949-.69846-1.06146-1.36945-1.50695-2.09544-.30252-.50047-.20352-1.41346.49497-1.51245.22551-.033.48949-.00551.72048-.00551l6.14881.0385c.0385-.40148.01652-.82498.01652-1.22645v-2.28245c.00551-.36297-.0385-.80846.04948-1.16046l.01101-.04948c.1045-.45099.84696-.76449,1.24847-.55549.45099.23098.87446.60497,1.28144.90745l9.77322,7.10031-2.60692-13.7551c-.19799-.84149-1.77644-5.05435.39597-4.51538.86348.209,3.76741,2.06794,4.20739,1.95794.19799-.05498.55549-.76996.64898-.94596l3.57489-7.46328c.29701-.5995.41249-1.13847,1.07247-1.42447,1.30896-.16499,1.94693,2.19993,2.41444,3.21742l1.78745,3.74539c.36297.78097.67647,1.60594,1.08345,2.36492l3.49789-1.27597c.80299-.30799,1.52347-.84146,2.21645-.02199.4565.53897-.07701,1.73243-.2145,2.34844l-2.48043,13.2656-.34649,2.4804c.44552-.26949.86348-.58298,1.29248-.89097l8.44224-6.2753c.4235-.34649,1.06697-1.08896,1.67744-.90749.2475.0715.61051.352.704.5995l.01652.05498c.09899.39601.02749.95149.02749,1.36398l-.00551,3.16241c.12098.04397.29698.02199.4235.02199l6.12679-.01101c1.47946-.00551,1.33646,1.03397.58849,2.02394Z" style="fill:none; stroke:#fff; stroke-linecap:round; stroke-linejoin:round; stroke-width:.7px;"/></g></svg>