<?xml version="1.0" encoding="UTF-8"?><svg xmlns="http://www.w3.org/2000/svg" viewBox="0 0 100 100"><g id="Layer_2"><circle cx="50" cy="50" r="50" style="fill:#5a7800;"/></g><g id="Layer_1"><path d="M51.23983,24.58908l6.88822,15.68475c.1965.44744.61885.7543,1.10512.80291l17.04566,1.70423c1.17317.11729,1.64643,1.57383.76626,2.3583l-12.7885,11.39794c-.36482.32515-.52614.82165-.42212,1.29914l3.64658,16.73802c.25098,1.152-.98803,2.05219-2.00609,1.45751l-14.79195-8.64043c-.42197-.24649-.94402-.24649-1.366,0l-14.79195,8.64043c-1.01806.59468-2.25706-.30551-2.00609-1.45751l3.64658-16.73802c.10403-.47749-.0573-.97399-.42212-1.29914l-12.7885-11.39794c-.88017-.78447-.40692-2.241.76626-2.3583l17.04566-1.70423c.48627-.04862.90861-.35547,1.10512-.80291l6.88822-15.68475c.47408-1.07951,2.00557-1.07951,2.47966,0Z" style="fill:none; stroke:#fff; stroke-linecap:round; stroke-linejoin:round; stroke-width:.7px;"/></g></svg>