<svg class="highlight-icon" xmlns="http://www.w3.org/2000/svg" viewBox="0 0 100 100">
    <path
        d="M94.01184,46.2748l-6.46675,9.23309c1.53587,1.22148,5.02073,2.48792,4.57165,4.45488-.21555.94306-1.92207,1.44602-2.68548,1.80525l-17.51409,8.73013c1.30234.95205,2.36216,2.2005,3.56566,3.27824l2.91002,2.5418c.85326.72751,2.81124,1.87717,2.49691,3.25133l-.01798.08086c-.4311,1.94-3.88899,1.05982-5.28117.92507l-24.0256-1.88054.50207,16.30508h-4.29879l.49521-16.28893-27.35276,2.17878c-1.48193.05389-2.51483-1.5089-1.44602-2.74836.62872-.74549,1.55385-1.32032,2.28136-1.97596l6.26014-5.65839c-.26045-.25151-.80836-.44009-1.14068-.61074l-17.54999-8.74811c-2.22741-1.22148-1.79632-2.20943.20656-3.57465.95205-.65564,1.96697-1.28436,2.86513-1.99388l-4.57159-6.49372c-.79937-1.14062-1.73344-2.23641-2.46094-3.42198-.49403-.8173-.33237-2.30827.80831-2.46994.36828-.05389.79937-.00899,1.17659-.00899l10.0414.06288c.06288-.65564.02697-1.34724.02697-2.00288v-3.72738c.00899-.59276-.06288-1.32027.0808-1.8951l.01798-.0808c.17065-.7365,1.38314-1.24845,2.03884-.90715.7365.37721,1.42804.98795,2.09267,1.48193l15.96029,11.59525-4.25726-22.46295c-.32332-1.37421-2.90103-8.25408.64665-7.3739,1.41011.3413,6.15242,3.37708,6.87093,3.19744.32332-.08979.90715-1.25739,1.05982-1.54481l5.83803-12.18801c.48504-.97902.67362-1.85919,1.75142-2.32625,2.13762-.26944,3.17946,3.59263,3.94293,5.25426l2.91901,6.11646c.59276,1.27537,1.10472,2.62261,1.76935,3.86207l5.71227-2.08373c1.31133-.50297,2.48792-1.37415,3.6196-.03591.74549.88018-.12576,2.82917-.35029,3.83515l-4.0507,21.66357-.56584,4.05065c.72756-.44009,1.41011-.95205,2.1107-1.45501l13.78671-10.24796c.6916-.56584,1.74243-1.77834,2.73937-1.48198.40418.11676.997.57483,1.14967.97902l.02697.08979c.16166.6467.0449,1.55385.0449,2.22747l-.00899,5.16441c.19757.07181.48499.03591.6916.03591l10.00544-.01798c2.41605-.00899,2.18252,1.68854.96104,3.30522Z" />
</svg>