<svg class="highlight-icon" xmlns="http://www.w3.org/2000/svg" viewBox="0 0 100 100">
    <polyline
        points="61.73213 72.59839 57.6048 89.33748 63.90573 87.2541 68.47899 91.97981 72.82952 76.39877"/>
    <polyline
        points="87.51656 73.05215 91.64388 89.79123 85.34295 87.70786 80.76969 92.43356 76.41916 76.85252"/>
    <path
        d="M94.07565,57.19859c-.02369,1.01282.35973,2.00208.72421,2.96465.38915,1.01291.7581,1.96814.54789,2.67582-.21627.73419-1.05091,1.34286-1.93298,1.98807-.82424.59993-1.68107,1.22024-2.19458,2.0702-.52082.84547-.68187,1.88526-.83824,2.89265-.16874,1.08544-.32813,2.10608-.87611,2.63286-.53902.51208-1.55721.62106-2.63593.73844-1.01819.10894-2.07775.22794-2.9616.71094-.85715.46401-1.50597,1.27168-2.13548,2.05585-.692.86192-1.35122,1.67833-2.11936,1.86435-.77401.18744-1.7278-.23835-2.74337-.68675-.91852-.40929-1.86497-.83064-2.83357-.85251-.42161-.01048-.83932.04688-1.24701.14561-.58494.14165-1.15719.36155-1.71761.57859-1.01291.38915-1.96223.75664-2.67725.54198-.73276-.21036-1.34147-1.04499-1.98219-1.93441-.60581-.82281-1.22473-1.67372-2.06874-2.18867-.85139-.51942-1.89117-.68044-2.89856-.83681-1.07956-.17016-2.10608-.32813-2.62841-.88345-.51065-.53311-.62551-1.54987-.74289-2.62859-.11038-1.02411-.22794-2.07775-.71238-2.96752-.46258-.85124-1.27025-1.50006-2.04854-2.13099-.86923-.69649-1.6783-1.35127-1.86574-2.12528-.18601-.7681.23387-1.72045.68814-2.73745.40341-.9171.82476-1.86355.84663-2.83214.0237-1.01279-.35381-2.00347-.7242-2.96462-.38915-1.01291-.75219-1.96957-.54202-2.67724.21039-.73276,1.0509-1.3429,1.93301-1.98812.82424-.5999,1.67515-1.21881,2.19458-2.07017.51491-.84404.67452-1.88974.83677-2.89855.16425-1.07813.32367-2.09878.87758-2.62695.53901-.51212,1.55129-.61963,2.63002-.73701,1.02411-.11038,2.07775-.22794,2.96748-.71237.85126-.46263,1.50601-1.27169,2.12959-2.05447.69792-.86331,1.35123-1.67829,2.12524-1.86573.76814-.18602,1.72784.23834,2.73749.68814.91853.40932,1.86497.83064,2.83945.85112,1.00691.02512,2.00351-.35382,2.95874-.72277,1.01291-.38915,1.96814-.7581,2.68173-.54933.72827.21767,1.33694,1.05231,1.98216,1.93441.59993.82424,1.22028,1.68106,2.0702,2.19458.85135.5194,1.89117.68044,2.89855.83677,1.07953.17017,2.10018.32959,2.62838.88349.51068.5331.61963,1.55129.73701,2.63002.11629,1.02268.22794,2.07775.71237,2.96748.46259.85127,1.27026,1.50009,2.05447,2.12959.86331.69792,1.67829,1.35123,1.8643,2.11933.18744.77401-.23834,1.72784-.6867,2.7434-.40932.91853-.83067,1.86498-.85256,2.83354Z"/>
    <path d="M81.82455,52.3639l-8.8498,8.8498-5.31086-5.31086"/>
    <circle cx="74.65058" cy="56.43242" r="14.0746"/>
    <path
        d="M41.70106,82.28909c-10.31705,0-18.68066-16.72724-18.68066-37.36133S31.38402,7.56644,41.70106,7.56644"/>
    <path d="M60.26043,40.64684c-1.0619-18.61798-8.96617-33.0804-18.55937-33.0804"/>
    <path d="M41.70106,82.28909c6.44815,0,12.13325-6.53407,15.4903-16.47225"/>
    <path
        d="M78.10558,36.50274c-1.1106-4.80477-3.14957-9.25421-5.9139-13.15314-6.76836,4.77314-17.89765,7.89158-30.49062,7.89158s-23.72217-3.11844-30.49053-7.89158c-4.32194,6.09572-6.87077,13.53705-6.87077,21.57815s2.54884,15.48243,6.87077,21.57815c6.76836-4.77314,17.89756-7.89158,30.49053-7.89158,4.28474,0,8.40003.36102,12.23175,1.0254"/>
    <path
        d="M72.19168,23.3496c-6.76836-9.54637-17.89765-15.78316-30.49062-15.78316s-23.72217,6.23679-30.49053,15.78316c6.76836,4.77314,17.89756,7.89158,30.49053,7.89158s23.72226-3.11844,30.49062-7.89158Z"/>
    <path
        d="M53.82196,59.6206c-3.8002-.65218-7.87745-1.00628-12.1209-1.00628-12.59298,0-23.72217,3.11844-30.49053,7.89158,6.76836,9.54637,17.89756,15.7832,30.49053,15.7832,6.90201,0,13.36432-1.87352,18.90995-5.1386"/>
    <line x1="41.70106" y1="82.28909" x2="41.70106" y2="7.56644"/>
    <line x1="4.33974" y1="44.92777" x2="58.00716" y2="44.92777"/>
</svg>