<svg class="highlight-icon" xmlns="http://www.w3.org/2000/svg" viewBox="0 0 100 100">
    <path d="M52.3183,7.18229l11.54417,26.28654c.32932.74988,1.03715,1.26415,1.8521,1.34563l28.56733,2.85617c1.96616.19658,2.7593,2.63763,1.28419,3.95234l-21.43264,19.10215c-.61142.54493-.88178,1.37703-.70744,2.17727l6.11141,28.05175c.42062,1.93067-1.65586,3.43932-3.36206,2.44268l-24.79027-14.48076c-.7072-.4131-1.58212-.4131-2.28932,0l-24.79027,14.48076c-1.7062.99664-3.78268-.51201-3.36206-2.44268l6.11141-28.05175c.17434-.80024-.09602-1.63234-.70744-2.17727L4.91477,41.62297c-1.47511-1.31471-.68196-3.75576,1.28419-3.95234l28.56733-2.85617c.81495-.08148,1.52277-.59574,1.8521-1.34563l11.54417-26.28654c.79453-1.80918,3.3612-1.80918,4.15573,0Z" />
</svg>