<svg class="highlight-icon" xmlns="http://www.w3.org/2000/svg" version="1.1" viewBox="0 0 100 100">
  <g>
    <line x1="49.8" y1="5" x2="49.8" y2="38.5"/>
    <line x1="18" y1="18.3" x2="41.7" y2="42"/>
    <line x1="5" y1="50.2" x2="38.5" y2="50.2"/>
    <line x1="18.3" y1="82" x2="42" y2="58.3"/>
    <line x1="50.2" y1="95" x2="50.2" y2="61.5"/>
    <line x1="82" y1="81.7" x2="58.3" y2="58"/>
    <line x1="95" y1="49.8" x2="61.5" y2="49.8"/>
    <line x1="81.7" y1="18" x2="58" y2="41.7"/>
    <line x1="49.8" y1="5" x2="49.8" y2="38.5"/>
  </g>
  <g>
    <line x1="59.3" y1="26.6" x2="52.3" y2="44"/>
    <line x1="40" y1="26.9" x2="47.4" y2="44.1"/>
    <line x1="26.6" y1="40.7" x2="44" y2="47.7"/>
    <line x1="26.9" y1="60" x2="44.1" y2="52.6"/>
    <line x1="40.7" y1="73.4" x2="47.7" y2="56"/>
    <line x1="60" y1="73.1" x2="52.6" y2="55.9"/>
    <line x1="73.4" y1="59.3" x2="56" y2="52.3"/>
    <line x1="73.1" y1="40" x2="55.9" y2="47.4"/>
    <line x1="59.3" y1="26.6" x2="52.3" y2="44"/>
  </g>
</svg>