<svg class="highlight-icon" xmlns="http://www.w3.org/2000/svg" viewBox="0 0 100 100">
    <path
        d="M25.03766,44.95078c.61024-4.7158,4.26743-8.3315,8.66992-8.31052,4.40248.02098,8.02504,3.67135,8.59033,8.39274"/>
    <path
        d="M59.00364,45.11263c.61024-4.7158,4.26743-8.3315,8.66992-8.31052,4.40248.02098,8.02504,3.67135,8.59033,8.39274"/>
    <path
        d="M80.37852,58.58905c-6.6328,10.65643-18.00911,16.3794-29.86516,16.32291h0c-11.85605-.05649-23.17731-5.88762-29.70825-16.60678"/>
    <path
        d="M53.98716,74.80637c2.71141-.26993,5.01395-3.36178,4.96663-6.30734-.01326-.82483-.00283-3.21554.0151-6.18836.02195-3.63788,2.98595-6.57067,6.62385-6.55333h.00001c3.64367.01736,6.58227,2.98857,6.56102,6.63222-.0096,1.6459-.01159,1.77733-.01353,2.18528-.00541,1.13515-.27726,3.28243-1.49192,4.22087"/>
    <path
        d="M65.76735,61.53634s-.01943,4.07739-.02615,5.48866c-.00673,1.41127.14784,4.7702-2.04841,5.45838"/>
    <path
        d="M5.59181,49.56106c0,24.855,20.145,45,45,45s45-20.145,45-45S75.44681,4.56106,50.59181,4.56106,5.59181,24.70606,5.59181,49.56106Z"/>
</svg>